<svg width="429" height="40" viewBox="0 0 429 40" fill="none" xmlns="http://www.w3.org/2000/svg">
<path d="M0.5 39.5V0.5H413C415.809 0.5 417.885 0.500389 419.527 0.634581C421.164 0.768297 422.326 1.03237 423.313 1.53544C425.1 2.44623 426.554 3.89955 427.465 5.68709C427.968 6.67442 428.232 7.83613 428.365 9.47274C428.5 11.1152 428.5 13.1915 428.5 16V24C428.5 26.8085 428.5 28.8848 428.365 30.5273C428.232 32.1639 427.968 33.3256 427.465 34.3129C426.554 36.1004 425.1 37.5538 423.313 38.4646C422.326 38.9676 421.164 39.2317 419.527 39.3654C417.885 39.4996 415.809 39.5 413 39.5H0.5Z" fill="white" stroke="#CCCCCC"/>
</svg>
