<svg width="187" height="187" viewBox="0 0 187 187" fill="none" xmlns="http://www.w3.org/2000/svg">
<path d="M70.7744 101.639C71.8511 97.0787 69.0274 92.5092 64.4674 91.4325C59.9074 90.3557 55.3379 93.1795 54.2611 97.7395C53.1844 102.299 56.0081 106.869 60.5682 107.946C65.1282 109.022 69.6977 106.199 70.7744 101.639Z" fill="#8CADF5"/>
<path d="M78.5368 136.647C78.553 134.73 78.4901 132.206 78.2493 129.02C77.5966 120.387 67.08 109.416 67.08 109.416H65.3316H59.7086H57.9603C57.9603 109.416 47.4436 120.387 46.791 129.02C46.5501 132.206 46.4871 134.73 46.5035 136.647C46.503 136.664 46.501 136.68 46.501 136.697V142.541C46.501 143.311 47.1308 143.941 47.9008 143.941H77.1395C77.9095 143.941 78.5393 143.311 78.5393 142.541V136.697C78.5393 136.68 78.5375 136.664 78.5368 136.647Z" fill="#8CADF5"/>
<path d="M132.256 100.224C133.006 95.5985 129.865 91.2405 125.24 90.4899C120.615 89.7393 116.257 92.8802 115.507 97.5053C114.756 102.13 117.897 106.488 122.522 107.239C127.147 107.99 131.505 104.849 132.256 100.224Z" fill="#8CADF5"/>
<path d="M139.894 136.521C139.91 134.555 139.848 131.967 139.607 128.701C138.954 119.849 128.437 108.6 128.437 108.6H126.689H121.066H119.318C119.318 108.6 108.801 119.849 108.148 128.701C107.908 131.967 107.845 134.555 107.861 136.521C107.86 136.538 107.858 136.555 107.858 136.572V142.564C107.858 143.353 108.488 143.999 109.258 143.999H138.497C139.267 143.999 139.897 143.353 139.897 142.564V136.572C139.897 136.555 139.895 136.538 139.894 136.521Z" fill="#8CADF5"/>
<path d="M98.4579 102.965C103.605 100.211 105.545 93.8044 102.79 88.657C100.035 83.5097 93.6287 81.5702 88.4813 84.3252C83.3339 87.0801 81.3945 93.4863 84.1494 98.6336C86.9044 103.781 93.3105 105.72 98.4579 102.965Z" fill="#4B7CEA"/>
<path d="M99.3123 38.6416H120.38C129.091 38.6416 136.218 46.5509 136.218 56.2181C136.218 65.8853 129.091 73.7948 120.38 73.7948H106.752L101.675 79.8176L101.07 69.1059C92.9974 68.3258 83.4746 65.3709 83.4746 56.2181C83.4748 46.5511 90.6016 38.6416 99.3123 38.6416Z" fill="#433930"/>
<path d="M98.9007 37.3584H119.965C128.674 37.3584 135.799 45.2679 135.799 54.9351C135.799 64.6022 128.674 72.5116 119.965 72.5116H105.625L101.676 80.3222L97.5256 72.4441C89.4542 71.6637 83.0664 64.0879 83.0664 54.9351C83.0662 45.2679 90.1917 37.3584 98.9007 37.3584Z" fill="#4B7CEA"/>
<path d="M101.179 54.7583C101.179 53.7137 101.885 52.9795 102.873 52.9795C103.861 52.9795 104.539 53.7137 104.539 54.7583C104.539 55.7748 103.889 56.537 102.845 56.537C101.856 56.5372 101.179 55.7748 101.179 54.7583Z" fill="white"/>
<path d="M108.423 54.7583C108.423 53.7137 109.129 52.9795 110.117 52.9795C111.105 52.9795 111.783 53.7137 111.783 54.7583C111.783 55.7748 111.133 56.537 110.089 56.537C109.101 56.5372 108.423 55.7748 108.423 54.7583Z" fill="white"/>
<path d="M115.199 54.7583C115.199 53.7137 115.905 52.9795 116.893 52.9795C117.881 52.9795 118.559 53.7137 118.559 54.7583C118.559 55.7748 117.91 56.537 116.865 56.537C115.877 56.5372 115.199 55.7748 115.199 54.7583Z" fill="white"/>
<path d="M110.995 136.083C111.02 133.955 110.953 131.12 110.674 127.511C109.941 118.038 98.1236 106 98.1236 106H96.1591H89.8407H87.8762C87.8762 106 76.0592 118.038 75.3259 127.511C74.8397 133.792 74.9983 137.73 75.1603 139.671V142.788C75.1603 143.454 75.7284 144 76.4228 144H109.738C110.432 144 111 143.454 111 142.788V136.174C111 136.143 110.997 136.113 110.995 136.083Z" fill="#4B7CEA"/>
</svg>
