<svg width="196" height="211" viewBox="0 0 196 211" fill="none" xmlns="http://www.w3.org/2000/svg">
<g clip-path="url(#clip0_41_466)">
<path d="M195.98 161.105H0V161.211H195.98V161.105Z" fill="#EBEBEB"/>
<path d="M176.343 167.887H163.36V167.992H176.343V167.887Z" fill="#EBEBEB"/>
<path d="M129.825 169.03H126.418V169.136H129.825V169.03Z" fill="#EBEBEB"/>
<path d="M162.969 163.975H155.446V164.08H162.969V163.975Z" fill="#EBEBEB"/>
<path d="M37.4915 164.683H20.5615V164.788H37.4915V164.683Z" fill="#EBEBEB"/>
<path d="M43.4637 164.683H40.9814V164.788H43.4637V164.683Z" fill="#EBEBEB"/>
<path d="M88.2485 166.462H51.5312V166.567H88.2485V166.462Z" fill="#EBEBEB"/>
<path d="M92.9 142.317H17.2129C15.9794 142.317 14.9756 141.238 14.9756 139.912V25.5562C14.9756 24.2303 15.9794 23.1514 17.2129 23.1514H92.9C94.1331 23.1514 95.1369 24.2303 95.1369 25.5562V139.912C95.1369 141.238 94.1331 142.317 92.9 142.317ZM17.2129 23.2571C16.0331 23.2571 15.0736 24.2885 15.0736 25.5566V139.912C15.0736 141.18 16.0331 142.212 17.2129 142.212H92.9C94.0794 142.212 95.0389 141.18 95.0389 139.912V25.5562C95.0389 24.2885 94.0794 23.2567 92.9 23.2567L17.2129 23.2571Z" fill="#EBEBEB"/>
<path d="M177.68 142.317H101.993C100.759 142.317 99.7559 141.238 99.7559 139.912V25.5562C99.7559 24.2303 100.76 23.1514 101.993 23.1514H177.68C178.913 23.1514 179.917 24.2303 179.917 25.5562V139.912C179.917 141.238 178.913 142.317 177.68 142.317ZM101.993 23.2571C100.813 23.2571 99.8538 24.2885 99.8538 25.5566V139.912C99.8538 141.18 100.813 142.212 101.993 142.212H177.68C178.859 142.212 179.819 141.18 179.819 139.912V25.5562C179.819 24.2885 178.859 23.2567 177.68 23.2567L101.993 23.2571Z" fill="#EBEBEB"/>
<path d="M84.4149 31.7386L84.7461 32.4603C84.7853 32.5454 84.8606 32.604 84.9476 32.6179L85.6884 32.7338C85.9079 32.7679 85.9957 33.0582 85.8369 33.2246L85.3007 33.7862C85.2376 33.8523 85.2086 33.9475 85.2235 34.0411L85.3501 34.834C85.3877 35.0691 85.1581 35.2485 84.9617 35.1373L84.2989 34.7628C84.2209 34.7185 84.1276 34.7185 84.0496 34.7628L83.3868 35.1373C83.1904 35.2481 82.9607 35.0691 82.9984 34.834L83.125 34.0411C83.1399 33.9475 83.1112 33.8523 83.0481 33.7862L82.5119 33.2246C82.3528 33.0582 82.4406 32.7679 82.6605 32.7338L83.4013 32.6179C83.4887 32.6044 83.564 32.5454 83.6028 32.4603L83.934 31.7386C84.0327 31.5246 84.3165 31.5246 84.4149 31.7386Z" fill="#F5F5F5"/>
<path d="M35.6141 91.0831L35.9453 91.8047C35.9845 91.8899 36.0598 91.9484 36.1472 91.9623L36.888 92.0782C37.1075 92.1123 37.1953 92.4026 37.0365 92.569L36.5003 93.1306C36.4372 93.1967 36.4086 93.292 36.4231 93.3855L36.5497 94.1784C36.5874 94.4135 36.3577 94.5929 36.1613 94.4817L35.4985 94.1072C35.4205 94.0629 35.3272 94.0629 35.2492 94.1072L34.5864 94.4817C34.39 94.5929 34.1603 94.4135 34.198 94.1784L34.3246 93.3855C34.3395 93.292 34.3109 93.1967 34.2474 93.1306L33.7112 92.569C33.552 92.4026 33.6398 92.1123 33.8597 92.0782L34.6005 91.9623C34.6879 91.9488 34.7632 91.8899 34.8024 91.8047L35.1336 91.0831C35.232 90.8695 35.5161 90.8695 35.6141 91.0831Z" fill="#F0F0F0"/>
<path d="M29.4596 51.2679L29.7909 51.9896C29.83 52.0747 29.9053 52.1333 29.9923 52.1472L30.7331 52.2631C30.9526 52.2972 31.0404 52.5875 30.8817 52.7539L30.3455 53.3155C30.2824 53.3816 30.2534 53.4768 30.2687 53.5704L30.3953 54.3633C30.4329 54.5984 30.2032 54.7778 30.0068 54.6666L29.344 54.2921C29.266 54.2478 29.1727 54.2478 29.0947 54.2921L28.4319 54.6666C28.2356 54.7778 28.0059 54.5984 28.0435 54.3633L28.1701 53.5704C28.185 53.4768 28.1564 53.3816 28.0929 53.3155L27.5567 52.7539C27.3979 52.5875 27.4853 52.2972 27.7052 52.2631L28.446 52.1472C28.5334 52.1337 28.6087 52.0747 28.6479 51.9896L28.9791 51.2679C29.0775 51.0539 29.3617 51.0539 29.4596 51.2679Z" fill="#F0F0F0"/>
<path d="M59.1565 69.377L59.3544 69.8084C59.3779 69.8594 59.4226 69.8944 59.4751 69.9024L59.918 69.9715C60.0493 69.9921 60.1019 70.1653 60.0066 70.2651L59.6864 70.6009C59.6488 70.6405 59.6315 70.6974 59.6405 70.753L59.7162 71.2269C59.7385 71.3677 59.6013 71.4747 59.4837 71.4081L59.0879 71.1844C59.0412 71.1578 58.9856 71.1578 58.9389 71.1844L58.543 71.4081C58.4255 71.4747 58.2883 71.3672 58.3106 71.2269L58.3863 70.753C58.3953 70.6974 58.378 70.6401 58.3404 70.6009L58.0202 70.2651C57.9253 70.1657 57.9774 69.9921 58.1087 69.9715L58.5517 69.9024C58.6038 69.8944 58.6489 69.859 58.6724 69.8084L58.8703 69.377C58.9283 69.2493 59.0981 69.2493 59.1565 69.377Z" fill="#F0F0F0"/>
<path d="M47.1451 124.579L47.3431 125.011C47.3662 125.061 47.4113 125.097 47.4634 125.105L47.9063 125.174C48.0376 125.195 48.0901 125.368 47.9949 125.468L47.6747 125.803C47.637 125.843 47.6198 125.9 47.6284 125.956L47.7041 126.43C47.7264 126.571 47.5892 126.678 47.472 126.611L47.0761 126.388C47.0295 126.361 46.9738 126.361 46.9272 126.388L46.5309 126.611C46.4133 126.678 46.2762 126.571 46.2989 126.43L46.3745 125.956C46.3836 125.9 46.3663 125.843 46.3287 125.803L46.0084 125.468C45.9136 125.368 45.9657 125.195 46.097 125.174L46.5399 125.105C46.5921 125.097 46.6372 125.061 46.6603 125.011L46.8582 124.579C46.9166 124.451 47.0863 124.451 47.1451 124.579Z" fill="#F5F5F5"/>
<path d="M170.267 32.3968L170.465 32.8283C170.488 32.8788 170.533 32.9142 170.585 32.9222L171.028 32.9913C171.159 33.0119 171.212 33.1851 171.117 33.2849L170.796 33.6207C170.758 33.6603 170.741 33.7172 170.75 33.7728L170.826 34.2468C170.848 34.3875 170.711 34.4945 170.594 34.4284L170.198 34.2047C170.151 34.1781 170.096 34.1781 170.049 34.2047L169.653 34.4284C169.535 34.4945 169.398 34.3875 169.421 34.2468L169.497 33.7728C169.506 33.7172 169.488 33.6599 169.451 33.6207L169.131 33.2849C169.036 33.1855 169.088 33.0119 169.219 32.9913L169.662 32.9222C169.714 32.9142 169.759 32.8788 169.782 32.8283L169.98 32.3968C170.038 32.2688 170.208 32.2688 170.267 32.3968Z" fill="#F5F5F5"/>
<path d="M166.859 111.908L167.202 112.655C167.242 112.743 167.32 112.803 167.41 112.818L168.177 112.937C168.404 112.973 168.495 113.273 168.33 113.445L167.776 114.026C167.71 114.095 167.68 114.193 167.696 114.29L167.827 115.11C167.866 115.354 167.628 115.539 167.425 115.424L166.739 115.037C166.659 114.992 166.562 114.992 166.481 115.037L165.796 115.424C165.593 115.539 165.355 115.354 165.394 115.11L165.525 114.29C165.54 114.194 165.51 114.095 165.445 114.026L164.891 113.445C164.726 113.273 164.817 112.973 165.044 112.937L165.81 112.818C165.901 112.804 165.979 112.743 166.019 112.655L166.362 111.908C166.464 111.687 166.758 111.687 166.859 111.908Z" fill="#F0F0F0"/>
<path d="M124.874 42.0815C124.874 42.3904 124.641 42.6406 124.354 42.6406C124.067 42.6406 123.834 42.3904 123.834 42.0815C123.834 41.7727 124.067 41.5225 124.354 41.5225C124.641 41.5225 124.874 41.7727 124.874 42.0815Z" fill="#F0F0F0"/>
<path d="M139.836 150.686C139.836 150.995 139.603 151.245 139.316 151.245C139.029 151.245 138.796 150.995 138.796 150.686C138.796 150.377 139.029 150.127 139.316 150.127C139.603 150.127 139.836 150.377 139.836 150.686Z" fill="#F5F5F5"/>
<path d="M52.0328 35.0984C52.0328 36.4226 51.0341 37.4956 49.8025 37.4956C48.5706 37.4956 47.5723 36.4221 47.5723 35.0984C47.5723 33.7742 48.571 32.7012 49.8025 32.7012C51.0341 32.7008 52.0328 33.7742 52.0328 35.0984Z" fill="#F0F0F0"/>
<path d="M73.1335 50.9379C74.6178 51.2075 76.0195 51.3293 77.213 51.3137C76.1618 52.6315 74.5128 53.3422 72.8042 53.0322C71.0925 52.7212 69.7493 51.4666 69.1562 49.8467C70.2816 50.2832 71.6452 50.6674 73.1335 50.9379Z" fill="#F5F5F5"/>
<path d="M73.8287 46.5163C72.0872 46.1999 70.4539 46.0879 69.1416 46.1629C69.9267 43.919 72.1036 42.5144 74.3923 42.9302C76.6778 43.3452 78.3041 45.4407 78.3597 47.8371C77.1435 47.3029 75.5701 46.8323 73.8287 46.5163Z" fill="#F5F5F5"/>
<path d="M80.988 49.3238C81.1395 48.3603 77.9519 46.9779 73.8683 46.2363C69.7847 45.4946 66.3515 45.6745 66.2 46.6381C66.0486 47.6017 69.2362 48.984 73.3198 49.7257C77.4034 50.4673 80.8366 50.2874 80.988 49.3238Z" fill="#F5F5F5"/>
<path d="M169.968 85.4388C162.291 101.954 143.621 108.65 128.255 100.398C127.621 100.058 127.007 99.7017 126.417 99.3195C135.248 95.8118 142.889 88.8366 147.429 79.07C153.908 65.1319 152.368 49.1539 144.684 37.1699C148.534 37.5087 152.39 38.6243 156.055 40.5926C171.421 48.8447 177.646 68.9237 169.968 85.4388Z" fill="#F5F5F5"/>
<path d="M155.747 46.0675C157.507 47.4663 158.492 49.5762 158.601 51.7615C157.59 50.2427 156.275 48.8115 154.713 47.5699C153.152 46.3283 151.489 45.4031 149.84 44.7948C151.817 44.2686 153.982 44.6633 155.747 46.0675Z" fill="#F0F0F0"/>
<path d="M147.898 96.7261C146.07 98.0191 143.888 98.2858 141.941 97.6433C143.616 97.1462 145.32 96.3128 146.942 95.1652C148.564 94.0176 149.946 92.6589 151.045 91.2041C150.824 93.3801 149.733 95.4285 147.898 96.7261Z" fill="#F0F0F0"/>
<path d="M158.61 64.9158C159.542 67.0434 159.479 69.4031 158.612 71.3832C158.391 69.5307 157.864 67.6003 157.037 65.712C156.209 63.8233 155.153 62.1617 153.969 60.7861C155.941 61.3292 157.674 62.7797 158.61 64.9158Z" fill="#F0F0F0"/>
<path d="M163.661 87.8586C162.289 89.69 160.287 90.6611 158.251 90.6889C159.704 89.6651 161.089 88.3119 162.307 86.6861C163.526 85.0603 164.455 83.3127 165.088 81.5664C165.496 83.7113 165.039 86.02 163.661 87.8586Z" fill="#F0F0F0"/>
<path d="M79.881 86.655C108.67 82.0687 158.377 130.09 170.606 85.2689C179.281 53.4705 125.103 11.5427 98.6743 31.9098C82.678 44.2372 85.8541 43.2235 62.5364 41.4018C38.9063 39.5556 28.9461 40.7517 25.092 65.6563C23.0977 78.5444 24.8925 103.787 42.2544 110.641C63.9678 119.214 62.2933 89.4571 79.881 86.655Z" fill="#407BFF"/>
<path opacity="0.9" d="M79.881 86.655C108.67 82.0687 158.377 130.09 170.606 85.2689C179.281 53.4705 125.103 11.5427 98.6743 31.9098C82.678 44.2372 85.8541 43.2235 62.5364 41.4018C38.9063 39.5556 28.9461 40.7517 25.092 65.6563C23.0977 78.5444 24.8925 103.787 42.2544 110.641C63.9678 119.214 62.2933 89.4571 79.881 86.655Z" fill="white"/>
<path d="M97.9899 180.134C139.962 180.134 173.987 177.998 173.987 175.363C173.987 172.729 139.962 170.593 97.9899 170.593C56.0181 170.593 21.9932 172.729 21.9932 175.363C21.9932 177.998 56.0181 180.134 97.9899 180.134Z" fill="#F5F5F5"/>
<path d="M99.6935 55.9623L99.4219 55.7305C100.655 54.0605 101.951 52.4621 103.275 50.9795L103.525 51.2378C102.209 52.7115 100.92 54.3011 99.6935 55.9623Z" fill="#407BFF"/>
<path d="M98.2297 57.3441L96.9668 59.0557L97.2386 59.2874L98.5015 57.5758L98.2297 57.3441Z" fill="#407BFF"/>
<path d="M125.43 75.5076C133.946 60.7885 135.107 46.2901 128.905 41.5963C122.704 36.9026 110.395 42.9626 100.373 56.5413L71.7109 95.3725L101.077 117.599L125.43 75.5076Z" fill="#407BFF"/>
<path opacity="0.1" d="M122.076 72.9704L97.1471 114.625L94.0957 108.36L118.858 70.3625C125.859 59.6154 129.78 49.794 129.797 44.3255C129.799 43.8321 130.453 43.7099 130.604 44.1759C132.369 49.6238 129.312 60.8827 122.076 72.9704Z" fill="white"/>
<path d="M101.078 117.607C105.042 111.556 101.683 101.674 93.5738 95.536C85.4648 89.3977 75.6773 89.3268 71.7127 95.3778C67.7481 101.429 71.1078 111.31 79.2167 117.448C87.3256 123.587 97.1131 123.657 101.078 117.607Z" fill="#407BFF"/>
<path opacity="0.5" d="M101.078 117.607C105.042 111.556 101.683 101.674 93.5738 95.536C85.4648 89.3977 75.6773 89.3268 71.7127 95.3778C67.7481 101.429 71.1078 111.31 79.2167 117.448C87.3256 123.587 97.1131 123.657 101.078 117.607Z" fill="white"/>
<path opacity="0.1" d="M98.0297 88.6577C91.5843 83.7789 84.2758 82.387 79.6123 84.6671L72.3398 94.5172C76.6424 89.3418 85.8664 89.6957 93.5723 95.5283C101.281 101.363 104.699 110.579 101.611 116.678L107.716 106.13C108.236 100.613 104.543 93.5878 98.0297 88.6577Z" fill="black"/>
<path opacity="0.2" d="M108.348 56.9033C106.56 59.9435 105.223 65.6361 110.526 69.6499C115.829 73.6637 120.365 70.3922 122.425 67.559L108.348 56.9033Z" fill="black"/>
<path d="M123.68 64.0302C123.07 69.4642 117.229 73.4287 111.093 68.7846C104.958 64.1406 106.462 56.8933 111.016 54.4451C113.822 52.9368 117.395 53.5818 119.841 55.4326C122.286 57.2838 124.055 60.6821 123.68 64.0302Z" fill="white"/>
<path d="M111.927 67.5126C109.539 65.7052 108.319 63.3493 108.492 60.8784C108.641 58.7407 109.856 56.809 111.664 55.8374C113.797 54.6907 116.817 55.0479 119.007 56.7058C121.197 58.3636 122.528 61.2992 122.242 63.8443C122.001 66.0006 120.718 67.8817 118.896 68.7534C116.789 69.7607 114.315 69.32 111.927 67.5126Z" fill="#407BFF"/>
<path opacity="0.3" d="M111.927 67.5126C109.539 65.7052 108.319 63.3493 108.492 60.8784C108.641 58.7407 109.856 56.809 111.664 55.8374C113.797 54.6907 116.817 55.0479 119.007 56.7058C121.197 58.3636 122.528 61.2992 122.242 63.8443C122.001 66.0006 120.718 67.8817 118.896 68.7534C116.789 69.7607 114.315 69.32 111.927 67.5126Z" fill="black"/>
<path d="M111.927 67.512C109.539 65.7046 108.276 63.4144 108.37 61.0631C108.452 59.0286 109.581 57.2279 111.318 56.3639C113.369 55.3439 116.33 55.7896 118.521 57.4475C120.711 59.1053 122.1 61.9525 121.897 64.3708C121.725 66.4196 120.529 68.1697 118.774 68.9381C116.746 69.8258 114.315 69.3194 111.927 67.512Z" fill="#407BFF"/>
<path opacity="0.2" d="M111.927 67.512C109.539 65.7046 108.276 63.4144 108.37 61.0631C108.452 59.0286 109.581 57.2279 111.318 56.3639C113.369 55.3439 116.33 55.7896 118.521 57.4475C120.711 59.1053 122.1 61.9525 121.897 64.3708C121.725 66.4196 120.529 68.1697 118.774 68.9381C116.746 69.8258 114.315 69.3194 111.927 67.512Z" fill="white"/>
<path opacity="0.3" d="M120.177 59.1152L109.145 64.3452C108.59 63.3013 108.325 62.192 108.369 61.0641C108.391 60.5097 108.489 59.9751 108.663 59.4737L115.783 56.0986C116.748 56.3624 117.689 56.8178 118.521 57.4476C119.145 57.9199 119.704 58.4857 120.177 59.1152Z" fill="white"/>
<path opacity="0.3" d="M121.76 62.4892L111.637 67.2845C110.993 66.7679 110.442 66.2177 109.983 65.6329L120.998 60.4092C121.349 61.0833 121.608 61.7885 121.76 62.4892Z" fill="white"/>
<path opacity="0.1" d="M132.799 53.1054C132.463 50.2001 130.384 46.8381 127.1 44.352C123.818 41.8679 120.173 40.8977 117.512 41.5338C122.038 39.5499 126.096 39.4716 128.905 41.597C131.713 43.7229 133.011 47.856 132.799 53.1054Z" fill="black"/>
<path opacity="0.5" d="M93.5687 105.752C94.8038 103.867 93.8034 100.823 91.3342 98.9543C88.865 97.0852 85.8621 97.0982 84.627 98.9832C83.3919 100.868 84.3923 103.912 86.8615 105.781C89.3306 107.65 92.3335 107.637 93.5687 105.752Z" fill="#407BFF"/>
<path opacity="0.5" d="M81.903 103.97C80.6679 105.855 77.6651 105.868 75.1957 103.999C72.7264 102.13 71.7257 99.0865 72.9608 97.2016C74.1958 95.3166 77.1987 95.3036 79.668 97.1725C82.1374 99.0418 83.138 102.085 81.903 103.97Z" fill="#407BFF"/>
<path opacity="0.5" d="M99.0534 116.951C97.8183 118.836 94.8155 118.849 92.3461 116.98C89.8768 115.111 88.8761 112.068 90.1112 110.183C91.3462 108.298 94.349 108.285 96.8184 110.154C99.2877 112.023 100.288 115.066 99.0534 116.951Z" fill="#407BFF"/>
<path opacity="0.5" d="M87.3893 115.175C86.1542 117.06 83.1514 117.073 80.6821 115.204C78.2127 113.335 77.212 110.292 78.4471 108.407C79.6822 106.522 82.685 106.509 85.1543 108.378C87.6237 110.246 88.6244 113.29 87.3893 115.175Z" fill="#407BFF"/>
<path opacity="0.5" d="M93.5669 105.744C93.4364 105.943 93.2812 106.125 93.1146 106.283C93.7989 104.402 92.763 101.797 90.5582 100.128C88.353 98.4589 85.7222 98.2887 84.3057 99.615C84.3876 99.3934 84.4938 99.1751 84.6247 98.9758C85.8582 97.093 88.8634 97.0787 91.3319 98.9468C93.8001 100.815 94.8004 103.861 93.5669 105.744Z" fill="#407BFF"/>
<path opacity="0.5" d="M81.9013 103.97C81.7704 104.17 81.6179 104.347 81.449 104.508C82.1357 102.625 81.1029 100.022 78.8946 98.3506C76.6894 96.6813 74.0585 96.5111 72.6396 97.8408C72.7235 97.6158 72.8282 97.4014 72.9587 97.2017C74.1946 95.3155 77.1974 95.3045 79.6659 97.173C82.1376 99.0436 83.1367 102.084 81.9013 103.97Z" fill="#407BFF"/>
<path opacity="0.5" d="M99.0536 116.952C98.9227 117.152 98.7698 117.33 98.6013 117.491C99.288 115.607 98.2525 113.002 96.0469 111.333C93.8386 109.662 91.2109 109.494 89.792 110.823C89.8763 110.598 89.9805 110.384 90.1114 110.184C91.3473 108.298 94.347 108.284 96.8183 110.155C99.2868 112.023 100.289 115.066 99.0536 116.952Z" fill="#407BFF"/>
<path opacity="0.5" d="M87.3886 115.175C87.2577 115.375 87.1079 115.555 86.9363 115.713C87.6206 113.833 86.587 111.224 84.3819 109.556C82.1767 107.886 79.5435 107.72 78.127 109.046C78.2077 108.819 78.3151 108.606 78.446 108.407C79.6819 106.521 82.6847 106.51 85.1532 108.378C87.6218 110.246 88.624 113.289 87.3886 115.175Z" fill="#407BFF"/>
<path d="M91.1603 70.8781C91.1603 70.8781 85.872 78.2577 81.2629 84.6122C79.9432 86.4318 77.8234 87.2997 75.6931 87.0162C71.6658 86.4803 65.0938 89.5512 65.0938 89.5512C65.0938 89.5512 77.5154 67.6412 91.1603 70.8781Z" fill="#407BFF"/>
<path opacity="0.3" d="M91.1603 70.8781C91.1603 70.8781 85.872 78.2577 81.2629 84.6122C79.9432 86.4318 77.8234 87.2997 75.6931 87.0162C71.6658 86.4803 65.0938 89.5512 65.0938 89.5512C65.0938 89.5512 77.5154 67.6412 91.1603 70.8781Z" fill="black"/>
<path d="M115.977 89.6621C115.977 89.6621 111.296 97.5005 107.283 104.307C106.134 106.256 106.088 108.693 107.054 110.753C108.881 114.649 108.406 122.334 108.406 122.334C108.406 122.334 123.411 102.38 115.977 89.6621Z" fill="#407BFF"/>
<path opacity="0.3" d="M115.977 89.6621C115.977 89.6621 111.296 97.5005 107.283 104.307C106.134 106.256 106.088 108.693 107.054 110.753C108.881 114.649 108.406 122.334 108.406 122.334C108.406 122.334 123.411 102.38 115.977 89.6621Z" fill="black"/>
<path d="M133.074 146.03C137.952 133.153 116.812 129.505 108.426 132.736C100.04 135.967 91.5085 138.369 91.1726 129.753C90.8367 121.138 97.295 115.795 94.2201 113.806C92.5131 112.703 92.0255 114.665 91.1863 117.491C88.6033 126.188 73.9989 128.262 80.7182 140.854C87.438 153.446 83.8696 150.712 72.5478 155.766C61.2257 160.819 67.0478 175.363 78.0004 175.363C88.9529 175.363 123.467 175.363 143.888 175.363C174.084 175.363 145.496 113.238 133.074 146.03Z" fill="#407BFF"/>
<path opacity="0.6" d="M133.074 146.03C137.952 133.153 116.812 129.505 108.426 132.736C100.04 135.967 91.5085 138.369 91.1726 129.753C90.8367 121.138 97.295 115.795 94.2201 113.806C92.5131 112.703 92.0255 114.665 91.1863 117.491C88.6033 126.188 73.9989 128.262 80.7182 140.854C87.438 153.446 83.8696 150.712 72.5478 155.766C61.2257 160.819 67.0478 175.363 78.0004 175.363C88.9529 175.363 123.467 175.363 143.888 175.363C174.084 175.363 145.496 113.238 133.074 146.03Z" fill="white"/>
<path d="M77.4317 101.153C76.5529 97.874 71.8028 102.005 67.1208 106.984C62.4008 112.004 60.1329 123.374 55.6082 129.298C51.0516 135.262 38.1177 140.623 43.1854 149.553C50.6612 162.724 33.4793 175.363 53.8259 175.363C74.1726 175.363 87.93 175.363 95.5599 175.363C103.19 175.363 111.466 165.334 99.5822 158.499C87.6987 151.665 69.8951 167.581 65.0932 152.411C62.7105 144.883 71.3508 148.338 67.3521 136.008C63.3533 123.679 63.612 120.325 65.6537 114.83C70.6206 101.465 78.7663 106.131 77.4317 101.153Z" fill="#407BFF"/>
<path opacity="0.6" d="M77.4317 101.153C76.5529 97.874 71.8028 102.005 67.1208 106.984C62.4008 112.004 60.1329 123.374 55.6082 129.298C51.0516 135.262 38.1177 140.623 43.1854 149.553C50.6612 162.724 33.4793 175.363 53.8259 175.363C74.1726 175.363 87.93 175.363 95.5599 175.363C103.19 175.363 111.466 165.334 99.5822 158.499C87.6987 151.665 69.8951 167.581 65.0932 152.411C62.7105 144.883 71.3508 148.338 67.3521 136.008C63.3533 123.679 63.612 120.325 65.6537 114.83C70.6206 101.465 78.7663 106.131 77.4317 101.153Z" fill="white"/>
<path d="M86.08 102.665C87.116 100.633 90.6663 101.853 90.5887 104.509C90.5111 107.165 81.3142 110.652 83.0227 119.83C84.7313 129.008 101.147 129.671 105.001 138.867C108.854 148.062 93.9302 149.353 98.3652 155.103C102.8 160.854 116.562 147.647 126.35 151.044C136.138 154.44 145.926 175.364 127.968 175.364C110.011 175.364 84.6709 175.364 72.6397 175.364C60.6085 175.364 51.8223 148.656 63.3832 137.673C74.9437 126.689 65.6181 130.251 69.9344 123.21C74.2499 116.168 82.111 110.452 86.08 102.665Z" fill="#407BFF"/>
<path opacity="0.8" d="M86.08 102.665C87.116 100.633 90.6663 101.853 90.5887 104.509C90.5111 107.165 81.3142 110.652 83.0227 119.83C84.7313 129.008 101.147 129.671 105.001 138.867C108.854 148.062 93.9302 149.353 98.3652 155.103C102.8 160.854 116.562 147.647 126.35 151.044C136.138 154.44 145.926 175.364 127.968 175.364C110.011 175.364 84.6709 175.364 72.6397 175.364C60.6085 175.364 51.8223 148.656 63.3832 137.673C74.9437 126.689 65.6181 130.251 69.9344 123.21C74.2499 116.168 82.111 110.452 86.08 102.665Z" fill="white"/>
</g>
<defs>
<clipPath id="clip0_41_466">
<rect width="195.98" height="210.652" fill="white"/>
</clipPath>
</defs>
</svg>
