<svg width="22" height="22" viewBox="0 0 22 22" fill="none" xmlns="http://www.w3.org/2000/svg">
<mask id="mask0_11_577" style="mask-type:alpha" maskUnits="userSpaceOnUse" x="0" y="0" width="22" height="22">
<rect width="22" height="22" fill="#D9D9D9"/>
</mask>
<g mask="url(#mask0_11_577)">
<path d="M5.36266 15.6747C6.14183 15.0788 7.01266 14.609 7.97516 14.2653C8.93766 13.9215 9.946 13.7497 11.0002 13.7497C12.0543 13.7497 13.0627 13.9215 14.0252 14.2653C14.9877 14.609 15.8585 15.0788 16.6377 15.6747C17.1724 15.0483 17.5887 14.3379 17.8866 13.5434C18.1845 12.749 18.3335 11.9011 18.3335 10.9997C18.3335 8.96773 17.6193 7.23752 16.1908 5.80905C14.7623 4.38058 13.0321 3.66634 11.0002 3.66634C8.96822 3.66634 7.23801 4.38058 5.80954 5.80905C4.38107 7.23752 3.66683 8.96773 3.66683 10.9997C3.66683 11.9011 3.81579 12.749 4.1137 13.5434C4.41162 14.3379 4.82794 15.0483 5.36266 15.6747ZM11.0002 11.9163C10.0988 11.9163 9.3387 11.607 8.71995 10.9882C8.1012 10.3695 7.79183 9.6094 7.79183 8.70801C7.79183 7.80662 8.1012 7.04655 8.71995 6.4278C9.3387 5.80905 10.0988 5.49967 11.0002 5.49967C11.9016 5.49967 12.6616 5.80905 13.2804 6.4278C13.8991 7.04655 14.2085 7.80662 14.2085 8.70801C14.2085 9.6094 13.8991 10.3695 13.2804 10.9882C12.6616 11.607 11.9016 11.9163 11.0002 11.9163ZM11.0002 20.1663C9.73211 20.1663 8.54044 19.9257 7.42516 19.4445C6.30988 18.9632 5.33975 18.3101 4.51475 17.4851C3.68975 16.6601 3.03662 15.69 2.55537 14.5747C2.07412 13.4594 1.8335 12.2677 1.8335 10.9997C1.8335 9.73162 2.07412 8.53995 2.55537 7.42467C3.03662 6.3094 3.68975 5.33926 4.51475 4.51426C5.33975 3.68926 6.30988 3.03613 7.42516 2.55488C8.54044 2.07363 9.73211 1.83301 11.0002 1.83301C12.2682 1.83301 13.4599 2.07363 14.5752 2.55488C15.6904 3.03613 16.6606 3.68926 17.4856 4.51426C18.3106 5.33926 18.9637 6.3094 19.445 7.42467C19.9262 8.53995 20.1668 9.73162 20.1668 10.9997C20.1668 12.2677 19.9262 13.4594 19.445 14.5747C18.9637 15.69 18.3106 16.6601 17.4856 17.4851C16.6606 18.3101 15.6904 18.9632 14.5752 19.4445C13.4599 19.9257 12.2682 20.1663 11.0002 20.1663ZM11.0002 18.333C11.8099 18.333 12.5738 18.2146 13.2918 17.9778C14.0099 17.741 14.6668 17.4011 15.2627 16.958C14.6668 16.515 14.0099 16.175 13.2918 15.9382C12.5738 15.7014 11.8099 15.583 11.0002 15.583C10.1904 15.583 9.42655 15.7014 8.7085 15.9382C7.99044 16.175 7.3335 16.515 6.73766 16.958C7.3335 17.4011 7.99044 17.741 8.7085 17.9778C9.42655 18.2146 10.1904 18.333 11.0002 18.333ZM11.0002 10.083C11.3974 10.083 11.7259 9.95315 11.9856 9.69342C12.2453 9.4337 12.3752 9.10523 12.3752 8.70801C12.3752 8.31079 12.2453 7.98231 11.9856 7.72259C11.7259 7.46287 11.3974 7.33301 11.0002 7.33301C10.6029 7.33301 10.2745 7.46287 10.0147 7.72259C9.75502 7.98231 9.62516 8.31079 9.62516 8.70801C9.62516 9.10523 9.75502 9.4337 10.0147 9.69342C10.2745 9.95315 10.6029 10.083 11.0002 10.083Z" fill="#8B96A5"/>
</g>
</svg>
