<svg width="25" height="15" viewBox="0 0 25 15" fill="none" xmlns="http://www.w3.org/2000/svg">
<path d="M0.307377 0.324782C0.512295 0.107888 0.73429 -0.000558853 0.973361 -0.000558853C1.21243 -0.000558853 1.43443 0.107888 1.63934 0.324782L12.5 11.8202L23.3607 0.324782C23.5656 0.107888 23.7876 -0.000558853 24.0266 -0.000558853C24.2657 -0.000558853 24.4877 0.107888 24.6926 0.324782C24.8975 0.541677 25 0.794719 25 1.08391C25 1.3731 24.8975 1.59 24.6926 1.73459L13.2172 13.9891C13.0123 14.206 12.7732 14.3145 12.5 14.3145C12.2268 14.3145 11.9877 14.206 11.7828 13.9891L0.307377 1.73459C0.102459 1.59 0 1.3731 0 1.08391C0 0.794719 0.102459 0.541677 0.307377 0.324782Z" fill="#242331"/>
</svg>
