<svg width="1344" height="356" viewBox="0 0 1344 356" fill="none" xmlns="http://www.w3.org/2000/svg">
<g filter="url(#filter0_d_11_499)">
<path fill-rule="evenodd" clip-rule="evenodd" d="M4 8.99999C4 5.68628 6.68629 3 10 3H1334C1337.31 3 1340 5.68629 1340 9V345C1340 348.314 1337.31 351 1334 351H10C6.68631 351 4 348.314 4 345V8.99999Z" fill="white"/>
<path fill-rule="evenodd" clip-rule="evenodd" d="M4 8.99999C4 5.68628 6.68629 3 10 3H1334C1337.31 3 1340 5.68629 1340 9V345C1340 348.314 1337.31 351 1334 351H10C6.68631 351 4 348.314 4 345V8.99999Z" stroke="#DEE2E7"/>
</g>
<defs>
<filter id="filter0_d_11_499" x="0.5" y="0.5" width="1343" height="355" filterUnits="userSpaceOnUse" color-interpolation-filters="sRGB">
<feFlood flood-opacity="0" result="BackgroundImageFix"/>
<feColorMatrix in="SourceAlpha" type="matrix" values="0 0 0 0 0 0 0 0 0 0 0 0 0 0 0 0 0 0 127 0" result="hardAlpha"/>
<feOffset dy="1"/>
<feGaussianBlur stdDeviation="1.5"/>
<feColorMatrix type="matrix" values="0 0 0 0 0.220833 0 0 0 0 0.220833 0 0 0 0 0.220833 0 0 0 0.1 0"/>
<feBlend mode="normal" in2="BackgroundImageFix" result="effect1_dropShadow_11_499"/>
<feBlend mode="normal" in="SourceGraphic" in2="effect1_dropShadow_11_499" result="shape"/>
</filter>
</defs>
</svg>
