<svg width="10" height="5" viewBox="0 0 10 5" fill="none" xmlns="http://www.w3.org/2000/svg">
<path d="M0.12 0.0992122C0.2 0.03339 0.286667 0.000479221 0.38 0.000479221C0.473333 0.000479221 0.56 0.03339 0.64 0.0992122L4.88 3.58777L9.12 0.0992122C9.2 0.03339 9.28667 0.000479221 9.38 0.000479221C9.47333 0.000479221 9.56 0.03339 9.64 0.0992122C9.72 0.165034 9.76 0.241826 9.76 0.329589C9.76 0.417351 9.72 0.483173 9.64 0.527055L5.16 4.24599C5.08 4.31182 4.98667 4.34473 4.88 4.34473C4.77333 4.34473 4.68 4.31182 4.6 4.24599L0.12 0.527055C0.04 0.483173 0 0.417351 0 0.329589C0 0.241826 0.04 0.165034 0.12 0.0992122Z" fill="black"/>
</svg>
