<svg width="10" height="4" viewBox="0 0 10 4" fill="none" xmlns="http://www.w3.org/2000/svg">
<path d="M0.12 0.0881374C0.2 0.0294263 0.286667 7.08103e-05 0.38 7.08103e-05C0.473333 7.08103e-05 0.56 0.0294263 0.64 0.0881374L4.88 3.19982L9.12 0.0881374C9.2 0.0294263 9.28667 7.08103e-05 9.38 7.08103e-05C9.47333 7.08103e-05 9.56 0.0294263 9.64 0.0881374C9.72 0.146848 9.76 0.215345 9.76 0.293626C9.76 0.371907 9.72 0.430619 9.64 0.469759L5.16 3.78693C5.08 3.84564 4.98667 3.875 4.88 3.875C4.77333 3.875 4.68 3.84564 4.6 3.78693L0.12 0.469759C0.04 0.430619 0 0.371907 0 0.293626C0 0.215345 0.04 0.146848 0.12 0.0881374Z" fill="black"/>
</svg>
