<svg width="48" height="48" viewBox="0 0 48 48" fill="none" xmlns="http://www.w3.org/2000/svg">
<path d="M24.0002 3.99902C16.0123 3.99902 9.51367 10.4976 9.51367 18.4854C9.51367 28.3986 22.4776 42.9516 23.0296 43.5662C23.548 44.1436 24.4532 44.1426 24.9708 43.5662C25.5226 42.9516 38.4866 28.3986 38.4866 18.4854C38.4864 10.4976 31.988 3.99902 24.0002 3.99902ZM24.0002 25.774C19.9812 25.774 16.7117 22.5044 16.7117 18.4854C16.7117 14.4665 19.9813 11.197 24.0002 11.197C28.019 11.197 31.2886 14.4666 31.2886 18.4855C31.2886 22.5044 28.019 25.774 24.0002 25.774Z" fill="black"/>
</svg>
