<svg width="10" height="5" viewBox="0 0 10 5" fill="none" xmlns="http://www.w3.org/2000/svg">
<path d="M0.12 0.0954695C0.2 0.0318151 0.286667 -1.23978e-05 0.38 -1.23978e-05C0.473333 -1.23978e-05 0.56 0.0318151 0.64 0.0954695L4.88 3.46915L9.12 0.0954695C9.2 0.0318151 9.28667 -1.23978e-05 9.38 -1.23978e-05C9.47333 -1.23978e-05 9.56 0.0318151 9.64 0.0954695C9.72 0.159123 9.76 0.233387 9.76 0.318259C9.76 0.403132 9.72 0.466786 9.64 0.509222L5.16 4.10569C5.08 4.16934 4.98667 4.20117 4.88 4.20117C4.77333 4.20117 4.68 4.16934 4.6 4.10569L0.12 0.509222C0.04 0.466786 0 0.403132 0 0.318259C0 0.233387 0.04 0.159123 0.12 0.0954695Z" fill="black"/>
</svg>
