<svg width="13" height="13" viewBox="0 0 13 13" fill="none" xmlns="http://www.w3.org/2000/svg">
<g clip-path="url(#clip0_18_433)">
<path d="M0.794805 3.65934C0.874805 3.57934 0.961471 3.53934 1.0548 3.53934C1.14814 3.53934 1.2348 3.57934 1.3148 3.65934L5.5548 7.89934L9.7948 3.65934C9.8748 3.57934 9.96147 3.53934 10.0548 3.53934C10.1481 3.53934 10.2348 3.57934 10.3148 3.65934C10.3948 3.73934 10.4348 3.83267 10.4348 3.93934C10.4348 4.046 10.3948 4.126 10.3148 4.17934L5.8348 8.69934C5.7548 8.77934 5.66147 8.81934 5.5548 8.81934C5.44814 8.81934 5.3548 8.77934 5.2748 8.69934L0.794805 4.17934C0.714805 4.126 0.674805 4.046 0.674805 3.93934C0.674805 3.83267 0.714805 3.73934 0.794805 3.65934Z" fill="#242331"/>
</g>
<defs>
<clipPath id="clip0_18_433">
<rect width="12.17" height="12" fill="white" transform="matrix(1 0 0 -1 0.669922 12.1797)"/>
</clipPath>
</defs>
</svg>
