<svg width="13" height="12" viewBox="0 0 13 12" fill="none" xmlns="http://www.w3.org/2000/svg">
<path d="M0.124883 3.47965C0.204883 3.39965 0.291549 3.35965 0.384883 3.35965C0.478216 3.35965 0.564883 3.39965 0.644883 3.47965L4.88488 7.71965L9.12488 3.47965C9.20488 3.39965 9.29155 3.35965 9.38488 3.35965C9.47822 3.35965 9.56488 3.39965 9.64488 3.47965C9.72488 3.55965 9.76488 3.65298 9.76488 3.75965C9.76488 3.86632 9.72488 3.94632 9.64488 3.99965L5.16488 8.51965C5.08488 8.59965 4.99155 8.63965 4.88488 8.63965C4.77822 8.63965 4.68488 8.59965 4.60488 8.51965L0.124883 3.99965C0.0448828 3.94632 0.00488281 3.86632 0.00488281 3.75965C0.00488281 3.65298 0.0448828 3.55965 0.124883 3.47965Z" fill="black"/>
</svg>
