<svg width="22" height="22" viewBox="0 0 22 22" fill="none" xmlns="http://www.w3.org/2000/svg">
<mask id="mask0_11_583" style="mask-type:alpha" maskUnits="userSpaceOnUse" x="0" y="0" width="22" height="22">
<rect width="22" height="22" fill="#D9D9D9"/>
</mask>
<g mask="url(#mask0_11_583)">
<path d="M3.66683 18.3337C3.16266 18.3337 2.73107 18.1541 2.37204 17.7951C2.01301 17.4361 1.8335 17.0045 1.8335 16.5003V5.50033C1.8335 4.99616 2.01301 4.56456 2.37204 4.20553C2.73107 3.84651 3.16266 3.66699 3.66683 3.66699H18.3335C18.8377 3.66699 19.2693 3.84651 19.6283 4.20553C19.9873 4.56456 20.1668 4.99616 20.1668 5.50033V16.5003C20.1668 17.0045 19.9873 17.4361 19.6283 17.7951C19.2693 18.1541 18.8377 18.3337 18.3335 18.3337H3.66683ZM11.0002 11.917L3.66683 7.33366V16.5003H18.3335V7.33366L11.0002 11.917ZM11.0002 10.0837L18.3335 5.50033H3.66683L11.0002 10.0837ZM3.66683 7.33366V5.50033V16.5003V7.33366Z" fill="#8B96A5"/>
</g>
</svg>
