<svg width="295" height="358" viewBox="0 0 295 358" fill="none" xmlns="http://www.w3.org/2000/svg">
<path d="M0 5.00001C0 2.23858 2.23858 0 5 0H290C292.761 0 295 2.23858 295 5V353C295 355.761 292.761 358 290 358H5.00001C2.23858 358 0 355.761 0 353V5.00001Z" fill="white"/>
<path d="M0.5 5.00001C0.5 2.51472 2.51472 0.5 5 0.5H290C292.485 0.5 294.5 2.51472 294.5 5V353C294.5 355.485 292.485 357.5 290 357.5H5.00001C2.51473 357.5 0.5 355.485 0.5 353V5.00001Z" stroke="#9E9292" stroke-opacity="0.6"/>
</svg>
