<svg width="14" height="15" viewBox="0 0 14 15" fill="none" xmlns="http://www.w3.org/2000/svg">
<path d="M8.59131 4.05561H12.1469L8.59131 0.5V4.05561Z" fill="#188038"/>
<path d="M8.59135 4.05561V0.5H2.63807C2.20303 0.5 1.85303 0.85 1.85303 1.28505V13.715C1.85303 14.15 2.20303 14.5 2.63807 14.5H11.3619C11.797 14.5 12.147 14.15 12.147 13.715V4.05561H8.59135Z" fill="#34A853"/>
<path d="M3.81543 5.99219V10.8039H10.1841V5.99219H3.81543ZM6.60562 10.0188H4.60048V8.78892H6.60562V10.0188ZM6.60562 8.00714H4.60048V6.77723H6.60562V8.00714ZM9.39908 10.0188H7.39393V8.78892H9.39908V10.0188ZM9.39908 8.00714H7.39393V6.77723H9.39908V8.00714Z" fill="white"/>
</svg>
