<svg width="35" height="24" viewBox="0 0 35 24" fill="none" xmlns="http://www.w3.org/2000/svg">
<path d="M31.4014 5.13066C31.2386 4.5167 30.907 3.95417 30.4402 3.49988C29.9734 3.04559 29.3878 2.71563 28.7427 2.54334C26.3854 2 16.9565 2 16.9565 2C16.9565 2 7.52755 2 5.17032 2.59508C4.52516 2.76738 3.93959 3.09734 3.47276 3.55163C3.00593 4.00591 2.67438 4.56845 2.51158 5.18241C2.08017 7.44056 1.86914 9.73132 1.88115 12.0259C1.86578 14.3377 2.07682 16.6459 2.51158 18.9211C2.69106 19.516 3.03004 20.0571 3.49578 20.4922C3.96152 20.9273 4.53828 21.2417 5.17032 21.4049C7.52755 22 16.9565 22 16.9565 22C16.9565 22 26.3854 22 28.7427 21.4049C29.3878 21.2326 29.9734 20.9027 30.4402 20.4484C30.907 19.9941 31.2386 19.4316 31.4014 18.8176C31.8295 16.5764 32.0405 14.3031 32.0318 12.0259C32.0472 9.71404 31.8362 7.40582 31.4014 5.13066V5.13066Z" stroke="black" stroke-linecap="round" stroke-linejoin="round"/>
<path d="M13.7264 16L22.3414 12L13.7264 8V16Z" stroke="black" stroke-linecap="round" stroke-linejoin="round"/>
</svg>
