<svg width="35" height="24" viewBox="0 0 35 24" fill="none" xmlns="http://www.w3.org/2000/svg">
<path d="M31.5544 5.13066C31.3895 4.5167 31.0536 3.95417 30.5808 3.49988C30.1079 3.04559 29.5148 2.71563 28.8613 2.54334C26.4737 2 16.923 2 16.923 2C16.923 2 7.37241 2 4.98475 2.59508C4.33126 2.76738 3.73814 3.09734 3.26529 3.55163C2.79243 4.00591 2.4566 4.56845 2.2917 5.18241C1.85472 7.44056 1.64097 9.73132 1.65314 12.0259C1.63756 14.3377 1.85132 16.6459 2.2917 18.9211C2.47349 19.516 2.81685 20.0571 3.2886 20.4922C3.76036 20.9273 4.34455 21.2417 4.98475 21.4049C7.37241 22 16.923 22 16.923 22C16.923 22 26.4737 22 28.8613 21.4049C29.5148 21.2326 30.1079 20.9027 30.5808 20.4484C31.0536 19.9941 31.3895 19.4316 31.5544 18.8176C31.988 16.5764 32.2017 14.3031 32.1929 12.0259C32.2085 9.71404 31.9947 7.40582 31.5544 5.13066V5.13066Z" stroke="black" stroke-linecap="round" stroke-linejoin="round"/>
<path d="M13.6523 16L22.3784 12L13.6523 8V16Z" stroke="black" stroke-linecap="round" stroke-linejoin="round"/>
</svg>
