<svg width="14" height="14" viewBox="0 0 14 14" fill="none" xmlns="http://www.w3.org/2000/svg">
<path d="M8.59131 3.55561H12.1469L8.59131 0V3.55561Z" fill="#188038"/>
<path d="M8.59135 3.55561V0H2.63807C2.20303 0 1.85303 0.35 1.85303 0.785047V13.215C1.85303 13.65 2.20303 14 2.63807 14H11.3619C11.797 14 12.147 13.65 12.147 13.215V3.55561H8.59135Z" fill="#34A853"/>
<path d="M3.81543 5.49219V10.3039H10.1841V5.49219H3.81543ZM6.60562 9.51882H4.60048V8.28892H6.60562V9.51882ZM6.60562 7.50714H4.60048V6.27723H6.60562V7.50714ZM9.39908 9.51882H7.39393V8.28892H9.39908V9.51882ZM9.39908 7.50714H7.39393V6.27723H9.39908V7.50714Z" fill="white"/>
</svg>
