<svg width="14" height="14" viewBox="0 0 14 14" fill="none" xmlns="http://www.w3.org/2000/svg">
<path d="M6.32807 1.874L1.64073 3.81353C1.38007 3.9214 1.38277 4.29171 1.64506 4.39568L6.35194 6.26223C6.7655 6.42625 7.22606 6.42625 7.63961 6.26223L12.3466 4.39561C12.6088 4.29171 12.6116 3.92147 12.3508 3.8136L7.66363 1.87392C7.236 1.69697 6.75562 1.69697 6.32799 1.87392" fill="#FCB400"/>
<path d="M7.41309 7.28173V11.9447C7.41309 12.1664 7.63672 12.3183 7.84288 12.2366L13.0878 10.2008C13.1463 10.1776 13.1965 10.1374 13.2318 10.0853C13.2672 10.0333 13.2861 9.9718 13.286 9.90887V5.24598C13.286 5.02419 13.0624 4.87233 12.8563 4.95405L7.61135 6.98988C7.55287 7.01308 7.5027 7.05331 7.46735 7.10536C7.432 7.15742 7.41309 7.21881 7.41309 7.28173Z" fill="#18BFFF"/>
<path d="M6.18845 7.52216L4.63187 8.27372L4.47383 8.35012L1.188 9.92453C0.979786 10.025 0.713867 9.87322 0.713867 9.64184V5.26533C0.713867 5.18162 0.756789 5.10934 0.814351 5.05498C0.837965 5.03147 0.864755 5.01137 0.893942 4.99529C0.972396 4.94817 1.08439 4.93559 1.17962 4.97326L6.16229 6.94754C6.41556 7.04802 6.43546 7.40284 6.18845 7.52216Z" fill="#F82B60"/>
<path d="M6.18855 7.52216L4.63198 8.27372L0.814453 5.05491C0.838072 5.03142 0.864862 5.01135 0.894044 4.99529C0.972498 4.94817 1.08449 4.93559 1.17972 4.97326L6.1624 6.94754C6.41567 7.04802 6.43557 7.40284 6.18855 7.52216Z" fill="black" fill-opacity="0.25"/>
</svg>
