<svg width="14" height="15" viewBox="0 0 14 15" fill="none" xmlns="http://www.w3.org/2000/svg">
<path d="M6.32782 2.374L1.64048 4.31353C1.37982 4.4214 1.38252 4.79171 1.64482 4.89568L6.3517 6.76223C6.76525 6.92625 7.22581 6.92625 7.63937 6.76223L12.3463 4.89561C12.6085 4.79171 12.6114 4.42147 12.3506 4.3136L7.66339 2.37392C7.23576 2.19697 6.75538 2.19697 6.32775 2.37392" fill="#FCB400"/>
<path d="M7.41309 7.78173V12.4447C7.41309 12.6664 7.63672 12.8183 7.84288 12.7366L13.0878 10.7008C13.1463 10.6776 13.1965 10.6374 13.2318 10.5853C13.2672 10.5333 13.2861 10.4718 13.286 10.4089V5.74598C13.286 5.52419 13.0624 5.37233 12.8563 5.45405L7.61135 7.48988C7.55287 7.51308 7.5027 7.55331 7.46735 7.60536C7.432 7.65742 7.41309 7.71881 7.41309 7.78173Z" fill="#18BFFF"/>
<path d="M6.18845 8.02216L4.63187 8.77372L4.47383 8.85012L1.188 10.4245C0.979786 10.525 0.713867 10.3732 0.713867 10.1418V5.76533C0.713867 5.68162 0.756789 5.60934 0.814351 5.55498C0.837965 5.53147 0.864755 5.51137 0.893942 5.49529C0.972396 5.44817 1.08439 5.43559 1.17962 5.47326L6.16229 7.44754C6.41556 7.54802 6.43546 7.90284 6.18845 8.02216Z" fill="#F82B60"/>
<path d="M6.18855 8.02216L4.63198 8.77372L0.814453 5.55491C0.838072 5.53142 0.864862 5.51135 0.894044 5.49529C0.972498 5.44817 1.08449 5.43559 1.17972 5.47326L6.1624 7.44754C6.41567 7.54802 6.43557 7.90284 6.18855 8.02216Z" fill="black" fill-opacity="0.25"/>
</svg>
