<svg width="10" height="5" viewBox="0 0 10 5" fill="none" xmlns="http://www.w3.org/2000/svg">
<path d="M0.12 0.0927668C0.2 0.0308571 0.286667 -9.77516e-05 0.38 -9.77516e-05C0.473333 -9.77516e-05 0.56 0.0308571 0.64 0.0927668L4.88 3.37398L9.12 0.0927668C9.2 0.0308571 9.28667 -9.77516e-05 9.38 -9.77516e-05C9.47333 -9.77516e-05 9.56 0.0308571 9.64 0.0927668C9.72 0.154676 9.76 0.226904 9.76 0.30945C9.76 0.391997 9.72 0.453906 9.64 0.495179L5.16 3.99307C5.08 4.05498 4.98667 4.08594 4.88 4.08594C4.77333 4.08594 4.68 4.05498 4.6 3.99307L0.12 0.495179C0.04 0.453906 0 0.391997 0 0.30945C0 0.226904 0.04 0.154676 0.12 0.0927668Z" fill="black"/>
</svg>
